<svg xmlns="http://www.w3.org/2000/svg" width="1200" height="630" viewBox="0 0 1200 630" role="img" aria-label="Germán Camilo Bernal Ladino Backend Developer">
  <rect width="1200" height="630" fill="#05070b"/>
  <g opacity=".28" stroke="#63d4ff" stroke-width="1">
    <path d="M0 90h1200M0 180h1200M0 270h1200M0 360h1200M0 450h1200M0 540h1200"/>
    <path d="M120 0v630M240 0v630M360 0v630M480 0v630M600 0v630M720 0v630M840 0v630M960 0v630M1080 0v630"/>
  </g>
  <circle cx="905" cy="170" r="7" fill="#63d4ff"/>
  <circle cx="1020" cy="295" r="7" fill="#89e7b3"/>
  <circle cx="835" cy="410" r="7" fill="#63d4ff"/>
  <path d="M905 170 1020 295 835 410 905 170" fill="none" stroke="#63d4ff" stroke-width="3" opacity=".56"/>
  <text x="90" y="190" fill="#89e7b3" font-family="Inter, Segoe UI, Arial, sans-serif" font-size="30" font-weight="800">BACKEND DEVELOPER</text>
  <text x="90" y="285" fill="#f3f7ff" font-family="Inter, Segoe UI, Arial, sans-serif" font-size="72" font-weight="900">Germán Camilo</text>
  <text x="90" y="365" fill="#f3f7ff" font-family="Inter, Segoe UI, Arial, sans-serif" font-size="72" font-weight="900">Bernal Ladino</text>
  <text x="92" y="445" fill="#afbdd1" font-family="Inter, Segoe UI, Arial, sans-serif" font-size="34">Java • Spring Boot • PostgreSQL • Docker • Kafka</text>
</svg>
